<svg xmlns="http://www.w3.org/2000/svg" viewBox="0 0 400 400" role="img" aria-label="Recruitment Coordinator illustration">
    <defs>
      <linearGradient id="g" x1="0" y1="0" x2="1" y2="1"><stop offset="0" stop-color="#FF5C8A"/><stop offset="1" stop-color="#8E2344"/></linearGradient>
      <radialGradient id="r" cx="30%" cy="20%" r="80%"><stop offset="0" stop-color="#ffffff" stop-opacity=".36"/><stop offset="1" stop-color="#ffffff" stop-opacity="0"/></radialGradient>
    </defs>
    <rect width="400" height="400" rx="48" fill="url(#g)"/>
    <rect width="400" height="400" rx="48" fill="url(#r)"/>
    <path d="M44 340 C118 286 158 354 230 306 C288 268 316 308 356 248" fill="none" stroke="#fff" stroke-width="34" stroke-linecap="round" opacity=".09"/>
    <rect x="78" y="118" width="244" height="224" rx="32" fill="rgba(255,255,255,.14)" stroke="rgba(255,255,255,.28)"/>
        <circle cx="152" cy="190" r="36" fill="#fff" opacity=".85"/><path d="M106 282c10-34 34-52 72-52s62 18 72 52" fill="#fff" opacity=".35"/>
        <rect x="218" y="160" width="70" height="14" rx="7" fill="#fff" opacity=".85"/><rect x="218" y="196" width="82" height="12" rx="6" fill="#fff" opacity=".45"/><rect x="218" y="228" width="58" height="12" rx="6" fill="#fff" opacity=".35"/>
        <path d="M248 294h42M248 266h22" stroke="#fff" stroke-width="12" stroke-linecap="round" opacity=".75"/><circle cx="286" cy="96" r="30" fill="#fff" opacity=".18"/>
    <text x="34" y="54" fill="#fff" font-family="Inter,Arial,sans-serif" font-size="24" font-weight="900" letter-spacing="-1">HR</text>
    <text x="34" y="372" fill="#fff" opacity=".85" font-family="Inter,Arial,sans-serif" font-size="15" font-weight="800">Recruitment Support</text>
    </svg>