<svg xmlns="http://www.w3.org/2000/svg" viewBox="0 0 400 400" role="img" aria-label="Data Entry Specialist illustration">
    <defs>
      <linearGradient id="g" x1="0" y1="0" x2="1" y2="1"><stop offset="0" stop-color="#19A7CE"/><stop offset="1" stop-color="#0B4E77"/></linearGradient>
      <radialGradient id="r" cx="30%" cy="20%" r="80%"><stop offset="0" stop-color="#ffffff" stop-opacity=".36"/><stop offset="1" stop-color="#ffffff" stop-opacity="0"/></radialGradient>
    </defs>
    <rect width="400" height="400" rx="48" fill="url(#g)"/>
    <rect width="400" height="400" rx="48" fill="url(#r)"/>
    <path d="M44 340 C118 286 158 354 230 306 C288 268 316 308 356 248" fill="none" stroke="#fff" stroke-width="34" stroke-linecap="round" opacity=".09"/>
    <rect x="72" y="128" width="256" height="204" rx="30" fill="rgba(255,255,255,.13)" stroke="rgba(255,255,255,.28)"/>
        <g opacity=".94"><rect x="102" y="162" width="56" height="46" rx="14" fill="#fff"/><rect x="172" y="162" width="56" height="46" rx="14" fill="#fff" opacity=".55"/><rect x="242" y="162" width="56" height="46" rx="14" fill="#fff" opacity=".35"/>
        <rect x="102" y="224" width="56" height="46" rx="14" fill="#fff" opacity=".35"/><rect x="172" y="224" width="56" height="46" rx="14" fill="#fff" opacity=".75"/><rect x="242" y="224" width="56" height="46" rx="14" fill="#fff" opacity=".52"/></g>
        <path d="M102 300h196" stroke="#fff" stroke-width="14" stroke-linecap="round" opacity=".65"/><circle cx="104" cy="96" r="26" fill="#fff" opacity=".18"/><circle cx="296" cy="100" r="34" fill="#fff" opacity=".22"/>
    <text x="34" y="54" fill="#fff" font-family="Inter,Arial,sans-serif" font-size="24" font-weight="900" letter-spacing="-1">DATA</text>
    <text x="34" y="372" fill="#fff" opacity=".85" font-family="Inter,Arial,sans-serif" font-size="15" font-weight="800">Data &amp; Records</text>
    </svg>