<svg xmlns="http://www.w3.org/2000/svg" viewBox="0 0 400 400" role="img" aria-label="Virtual Assistant illustration">
    <defs>
      <linearGradient id="g" x1="0" y1="0" x2="1" y2="1"><stop offset="0" stop-color="#22C55E"/><stop offset="1" stop-color="#166534"/></linearGradient>
      <radialGradient id="r" cx="30%" cy="20%" r="80%"><stop offset="0" stop-color="#ffffff" stop-opacity=".36"/><stop offset="1" stop-color="#ffffff" stop-opacity="0"/></radialGradient>
    </defs>
    <rect width="400" height="400" rx="48" fill="url(#g)"/>
    <rect width="400" height="400" rx="48" fill="url(#r)"/>
    <path d="M44 340 C118 286 158 354 230 306 C288 268 316 308 356 248" fill="none" stroke="#fff" stroke-width="34" stroke-linecap="round" opacity=".09"/>
    <rect x="76" y="142" width="248" height="154" rx="24" fill="rgba(255,255,255,.14)" stroke="rgba(255,255,255,.28)"/>
        <path d="M106 296h188l24 38H82l24-38z" fill="#fff" opacity=".78"/>
        <rect x="112" y="176" width="92" height="16" rx="8" fill="#fff" opacity=".85"/><rect x="112" y="210" width="152" height="14" rx="7" fill="#fff" opacity=".42"/><rect x="112" y="240" width="122" height="14" rx="7" fill="#fff" opacity=".32"/>
        <circle cx="274" cy="102" r="42" fill="#fff" opacity=".18"/><path d="M252 102l16 16 34-42" stroke="#fff" stroke-width="11" fill="none" stroke-linecap="round" stroke-linejoin="round"/>
    <text x="34" y="54" fill="#fff" font-family="Inter,Arial,sans-serif" font-size="24" font-weight="900" letter-spacing="-1">VA</text>
    <text x="34" y="372" fill="#fff" opacity=".85" font-family="Inter,Arial,sans-serif" font-size="15" font-weight="800">Virtual Assistance</text>
    </svg>