<svg xmlns="http://www.w3.org/2000/svg" viewBox="0 0 64 64" role="img" aria-label="WhatsApp"><rect width="64" height="64" rx="16" fill="#e9fff1"/><circle cx="32" cy="30" r="20" fill="#25D366"/><path d="M20 52l3.4-10.2" fill="none" stroke="#25D366" stroke-width="8" stroke-linecap="round"/><path d="M25.7 20.9c1.2-1.1 3.1-.8 4 .7l1.2 2.3c.5.9.4 2.1-.3 2.9l-1 1.1c1.8 3.2 4.4 5.7 7.5 7.5l1.3-1c.8-.6 2-.7 2.9-.2l2.4 1.3c1.5.8 1.8 2.8.6 4-.9 1-2.4 1.8-4.1 1.8-7.7-.1-17.5-9.5-17.6-17.4 0-1.2.7-2.3 1.5-3z" fill="#fff"/></svg>