<svg xmlns="http://www.w3.org/2000/svg" viewBox="0 0 400 400" role="img" aria-label="Finance Administrator illustration">
    <defs>
      <linearGradient id="g" x1="0" y1="0" x2="1" y2="1"><stop offset="0" stop-color="#526DFF"/><stop offset="1" stop-color="#2B3DA8"/></linearGradient>
      <radialGradient id="r" cx="30%" cy="20%" r="80%"><stop offset="0" stop-color="#ffffff" stop-opacity=".36"/><stop offset="1" stop-color="#ffffff" stop-opacity="0"/></radialGradient>
    </defs>
    <rect width="400" height="400" rx="48" fill="url(#g)"/>
    <rect width="400" height="400" rx="48" fill="url(#r)"/>
    <path d="M44 340 C118 286 158 354 230 306 C288 268 316 308 356 248" fill="none" stroke="#fff" stroke-width="34" stroke-linecap="round" opacity=".09"/>
    <rect x="70" y="148" width="260" height="170" rx="28" fill="rgba(255,255,255,.13)" stroke="rgba(255,255,255,.28)"/>
        <rect x="98" y="178" width="80" height="22" rx="11" fill="#fff" opacity=".9"/><rect x="98" y="218" width="204" height="14" rx="7" fill="#fff" opacity=".45"/><rect x="98" y="248" width="148" height="14" rx="7" fill="#fff" opacity=".32"/>
        <rect x="228" y="164" width="76" height="128" rx="20" fill="#fff" opacity=".15"/><path d="M244 256h44M244 229h34M244 202h52" stroke="#fff" stroke-width="9" stroke-linecap="round" opacity=".9"/>
        <circle cx="296" cy="108" r="44" fill="#fff" opacity=".16"/><path d="M278 108l16 16 28-36" fill="none" stroke="#fff" stroke-width="12" stroke-linecap="round" stroke-linejoin="round"/>
    <text x="34" y="54" fill="#fff" font-family="Inter,Arial,sans-serif" font-size="24" font-weight="900" letter-spacing="-1">FIN</text>
    <text x="34" y="372" fill="#fff" opacity=".85" font-family="Inter,Arial,sans-serif" font-size="15" font-weight="800">Finance Operations</text>
    </svg>