<svg xmlns="http://www.w3.org/2000/svg" viewBox="0 0 400 400" role="img" aria-label="Customer Service Representative illustration">
    <defs>
      <linearGradient id="g" x1="0" y1="0" x2="1" y2="1"><stop offset="0" stop-color="#7C5CFF"/><stop offset="1" stop-color="#433096"/></linearGradient>
      <radialGradient id="r" cx="30%" cy="20%" r="80%"><stop offset="0" stop-color="#ffffff" stop-opacity=".36"/><stop offset="1" stop-color="#ffffff" stop-opacity="0"/></radialGradient>
    </defs>
    <rect width="400" height="400" rx="48" fill="url(#g)"/>
    <rect width="400" height="400" rx="48" fill="url(#r)"/>
    <path d="M44 340 C118 286 158 354 230 306 C288 268 316 308 356 248" fill="none" stroke="#fff" stroke-width="34" stroke-linecap="round" opacity=".09"/>
    <circle cx="200" cy="190" r="92" fill="rgba(255,255,255,.14)" stroke="rgba(255,255,255,.28)"/>
        <path d="M124 200v-22a76 76 0 0 1 152 0v22" fill="none" stroke="#fff" stroke-width="18" stroke-linecap="round"/>
        <rect x="94" y="184" width="48" height="72" rx="18" fill="#fff" opacity=".88"/><rect x="258" y="184" width="48" height="72" rx="18" fill="#fff" opacity=".88"/>
        <path d="M242 260c-14 16-32 24-56 24" fill="none" stroke="#fff" stroke-width="12" stroke-linecap="round" opacity=".75"/>
        <rect x="68" y="92" width="112" height="54" rx="20" fill="#fff" opacity=".16"/><rect x="222" y="96" width="110" height="54" rx="20" fill="#fff" opacity=".18"/>
    <text x="34" y="54" fill="#fff" font-family="Inter,Arial,sans-serif" font-size="24" font-weight="900" letter-spacing="-1">CX</text>
    <text x="34" y="372" fill="#fff" opacity=".85" font-family="Inter,Arial,sans-serif" font-size="15" font-weight="800">Customer Experience</text>
    </svg>